<?xml version="1.0" encoding="UTF-8"?>
<svg width="82px" height="76px" viewBox="0 0 82 76" version="1.1" xmlns="http://www.w3.org/2000/svg" xmlns:xlink="http://www.w3.org/1999/xlink">
    <!-- Generator: Sketch 50.2 (55047) - http://www.bohemiancoding.com/sketch -->
    <title>language-mobile</title>
    <desc>Created with Sketch.</desc>
    <defs></defs>
    <g id="SP" stroke="none" stroke-width="1" fill="none" fill-rule="evenodd">
        <g id="SP-ニュース詳細" transform="translate(-498.000000, -46.000000)" fill="#FFFFFF">
            <g id="//-HEADER">
                <g id="language-mobile" transform="translate(497.000000, 46.000000)">
                    <text id="LANGUAGE" font-family="OpenSans, Open Sans" font-size="13" font-weight="normal" letter-spacing="2.172857">
                        <tspan x="0.189919656" y="75">LANGUAGE</tspan>
                    </text>
                    <g id="Page-1" transform="translate(16.000000, 0.000000)" fill-rule="nonzero">
                        <g id="Group-4">
                            <path d="M26,52 C11.6405953,52 0,40.3594047 0,26 C0,11.6405953 11.6405953,0 26,0 C40.3594047,0 52,11.6405953 52,26 C52,40.3594047 40.3594047,52 26,52 Z M26,48.6800225 C38.5258318,48.6800225 48.6800225,38.5258318 48.6800225,26 C48.6800225,13.4741682 38.5258318,3.31997753 26,3.31997753 C13.4741682,3.31997753 3.31997753,13.4741682 3.31997753,26 C3.31997753,38.5258318 13.4741682,48.6800225 26,48.6800225 Z" id="Stroke-1"></path>
                            <path d="M26,52 C19.4423076,52 15,40.318502 15,26 C15,11.681498 19.4423076,0 26,0 C32.557691,0 37,11.6814999 37,26 C37,40.3185001 32.557691,52 26,52 Z M26,48.6800225 C27.5270743,48.6800225 29.4050143,46.5913258 30.9053833,42.6459542 C32.5563068,38.3046842 33.5123199,32.3610801 33.5123199,26 C33.5123199,19.6389199 32.5563068,13.6953158 30.9053833,9.35404584 C29.4050143,5.4086742 27.5270743,3.31997753 26,3.31997753 C24.4729247,3.31997753 22.5949848,5.40867397 21.094616,9.35404576 C19.4436929,13.6953154 18.4876801,19.6389194 18.4876801,26 C18.4876801,32.3610806 19.4436929,38.3046846 21.094616,42.6459542 C22.5949848,46.591326 24.4729247,48.6800225 26,48.6800225 Z" id="Stroke-2"></path>
                            <path d="M3.5991818,17 C2.71597808,17 2,16.5522847 2,16 C2,15.4477153 2.71597808,15 3.5991818,15 L47.4008182,15 C48.2840219,15 49,15.4477153 49,16 C49,16.5522847 48.2840219,17 47.4008182,17 L3.5991818,17 Z" id="Stroke-3"></path>
                            <path d="M3.5991818,34 C2.71597808,34 2,33.5522847 2,33 C2,32.4477153 2.71597808,32 3.5991818,32 L47.4008182,32 C48.2840219,32 49,32.4477153 49,33 C49,33.5522847 48.2840219,34 47.4008182,34 L3.5991818,34 Z" id="Stroke-4"></path>
                        </g>
                    </g>
                </g>
            </g>
        </g>
    </g>
</svg>