<?xml version="1.0" encoding="UTF-8"?>
<svg width="82px" height="76px" viewBox="0 0 82 76" version="1.1" xmlns="http://www.w3.org/2000/svg" xmlns:xlink="http://www.w3.org/1999/xlink">
    <!-- Generator: Sketch 50.2 (55047) - http://www.bohemiancoding.com/sketch -->
    <title>language-gray</title>
    <desc>Created with Sketch.</desc>
    <defs></defs>
    <g id="SP" stroke="none" stroke-width="1" fill="none" fill-rule="evenodd">
        <g id="SP-お問い合わせ-Copy" transform="translate(-498.000000, -46.000000)" fill="#4D4D4D">
            <g id="//-HEADER">
                <g id="language-gray" transform="translate(497.000000, 46.000000)">
                    <path d="M1.46579856,75 L1.46579856,65.7197266 L2.54490013,65.7197266 L2.54490013,74.0224609 L6.63913841,74.0224609 L6.63913841,75 L1.46579856,75 Z M16.2197103,75 L15.0644368,72.0483398 L11.3447103,72.0483398 L10.2021321,75 L9.11033525,75 L12.7792806,65.6816406 L13.6869954,65.6816406 L17.3368978,75 L16.2197103,75 Z M14.728011,71.0771484 L13.6489095,68.2016602 C13.5092603,67.837726 13.3653816,67.3912787 13.2172688,66.8623047 C13.1241694,67.2685567 12.99087,67.7150041 12.8173665,68.2016602 L11.7255696,71.0771484 L14.728011,71.0771484 Z M28.0346571,75 L26.8032118,75 L21.7314344,67.2114258 L21.6806532,67.2114258 C21.7483619,68.1254929 21.7822157,68.9633751 21.7822157,69.7250977 L21.7822157,75 L20.7856337,75 L20.7856337,65.7197266 L22.0043837,65.7197266 L27.0634657,73.4765625 L27.1142469,73.4765625 C27.1057834,73.3623041 27.0867406,72.9952017 27.057118,72.3752441 C27.0274955,71.7552866 27.0169162,71.3120131 27.0253798,71.0454102 L27.0253798,65.7197266 L28.0346571,65.7197266 L28.0346571,75 Z M36.8408149,70.1376953 L39.9956,70.1376953 L39.9956,74.6508789 C39.5047122,74.8074552 39.0053682,74.9259436 38.4975532,75.0063477 C37.9897381,75.0867517 37.4015279,75.1269531 36.7329047,75.1269531 C35.3279498,75.1269531 34.234048,74.7090699 33.4511664,73.873291 C32.6682849,73.0375121 32.27685,71.8663812 32.27685,70.3598633 C32.27685,69.3950147 32.4704516,68.5497269 32.8576606,67.8239746 C33.2448695,67.0982223 33.8023998,66.5438658 34.530268,66.1608887 C35.2581362,65.7779115 36.1108295,65.5864258 37.0883735,65.5864258 C38.0786128,65.5864258 39.0011296,65.7683901 39.8559516,66.1323242 L39.4370063,67.0844727 C38.5991115,66.7290021 37.7929672,66.5512695 37.0185493,66.5512695 C35.8886608,66.5512695 35.0063454,66.8876919 34.3715766,67.5605469 C33.7368078,68.2334018 33.4194282,69.1664979 33.4194282,70.3598633 C33.4194282,71.6124737 33.7251705,72.5624968 34.3366645,73.2099609 C34.9481584,73.8574251 35.8463428,74.1811523 37.0312446,74.1811523 C37.6744769,74.1811523 38.3028886,74.1070971 38.9164985,73.9589844 L38.9164985,71.1025391 L36.8408149,71.1025391 L36.8408149,70.1376953 Z M51.4042969,65.7197266 L51.4042969,71.7246094 C51.4042969,72.7825574 51.0848014,73.614092 50.4458008,74.2192383 C49.8068002,74.8243845 48.9287165,75.1269531 47.8115234,75.1269531 C46.6943304,75.1269531 45.8299998,74.8222687 45.2185059,74.2128906 C44.6070119,73.6035126 44.3012695,72.7656303 44.3012695,71.6992188 L44.3012695,65.7197266 L45.3803711,65.7197266 L45.3803711,71.7753906 C45.3803711,72.5498086 45.5919575,73.1443664 46.0151367,73.559082 C46.4383159,73.9737976 47.06038,74.1811523 47.8813477,74.1811523 C48.6642292,74.1811523 49.2672505,73.9727397 49.6904297,73.5559082 C50.1136089,73.1390767 50.3251953,72.541345 50.3251953,71.7626953 L50.3251953,65.7197266 L51.4042969,65.7197266 Z M61.7402398,75 L60.5849664,72.0483398 L56.8652398,72.0483398 L55.7226617,75 L54.6308648,75 L58.2998101,65.6816406 L59.207525,65.6816406 L62.8574273,75 L61.7402398,75 Z M60.2485406,71.0771484 L59.169439,68.2016602 C59.0297899,67.837726 58.8859111,67.3912787 58.7377984,66.8623047 C58.644699,67.2685567 58.5113995,67.7150041 58.3378961,68.2016602 L57.2460992,71.0771484 L60.2485406,71.0771484 Z M70.1274523,70.1376953 L73.2822374,70.1376953 L73.2822374,74.6508789 C72.7913496,74.8074552 72.2920056,74.9259436 71.7841906,75.0063477 C71.2763755,75.0867517 70.6881653,75.1269531 70.0195421,75.1269531 C68.6145872,75.1269531 67.5206854,74.7090699 66.7378038,73.873291 C65.9549223,73.0375121 65.5634874,71.8663812 65.5634874,70.3598633 C65.5634874,69.3950147 65.757089,68.5497269 66.144298,67.8239746 C66.531507,67.0982223 67.0890372,66.5438658 67.8169054,66.1608887 C68.5447736,65.7779115 69.3974669,65.5864258 70.3750109,65.5864258 C71.3652502,65.5864258 72.287767,65.7683901 73.142589,66.1323242 L72.7236437,67.0844727 C71.8857489,66.7290021 71.0796046,66.5512695 70.3051867,66.5512695 C69.1752982,66.5512695 68.2929828,66.8876919 67.658214,67.5605469 C67.0234452,68.2334018 66.7060656,69.1664979 66.7060656,70.3598633 C66.7060656,71.6124737 67.0118079,72.5624968 67.6233019,73.2099609 C68.2347958,73.8574251 69.1329802,74.1811523 70.317882,74.1811523 C70.9611144,74.1811523 71.589526,74.1070971 72.2031359,73.9589844 L72.2031359,71.1025391 L70.1274523,71.1025391 L70.1274523,70.1376953 Z M82.8564616,75 L77.6831218,75 L77.6831218,65.7197266 L82.8564616,65.7197266 L82.8564616,66.6782227 L78.7622233,66.6782227 L78.7622233,69.6679688 L82.608903,69.6679688 L82.608903,70.6201172 L78.7622233,70.6201172 L78.7622233,74.0351562 L82.8564616,74.0351562 L82.8564616,75 Z" id="LANGUAGE"></path>
                    <g id="Page-1" transform="translate(16.000000, 0.000000)" fill-rule="nonzero">
                        <g id="Group-4">
                            <path d="M26,52 C11.6405953,52 0,40.3594047 0,26 C0,11.6405953 11.6405953,0 26,0 C40.3594047,0 52,11.6405953 52,26 C52,40.3594047 40.3594047,52 26,52 Z M26,48.6800225 C38.5258318,48.6800225 48.6800225,38.5258318 48.6800225,26 C48.6800225,13.4741682 38.5258318,3.31997753 26,3.31997753 C13.4741682,3.31997753 3.31997753,13.4741682 3.31997753,26 C3.31997753,38.5258318 13.4741682,48.6800225 26,48.6800225 Z" id="Stroke-1"></path>
                            <path d="M26,52 C19.4423076,52 15,40.318502 15,26 C15,11.681498 19.4423076,0 26,0 C32.557691,0 37,11.6814999 37,26 C37,40.3185001 32.557691,52 26,52 Z M26,48.6800225 C27.5270743,48.6800225 29.4050143,46.5913258 30.9053833,42.6459542 C32.5563068,38.3046842 33.5123199,32.3610801 33.5123199,26 C33.5123199,19.6389199 32.5563068,13.6953158 30.9053833,9.35404584 C29.4050143,5.4086742 27.5270743,3.31997753 26,3.31997753 C24.4729247,3.31997753 22.5949848,5.40867397 21.094616,9.35404576 C19.4436929,13.6953154 18.4876801,19.6389194 18.4876801,26 C18.4876801,32.3610806 19.4436929,38.3046846 21.094616,42.6459542 C22.5949848,46.591326 24.4729247,48.6800225 26,48.6800225 Z" id="Stroke-2"></path>
                            <path d="M3.5991818,17 C2.71597808,17 2,16.5522847 2,16 C2,15.4477153 2.71597808,15 3.5991818,15 L47.4008182,15 C48.2840219,15 49,15.4477153 49,16 C49,16.5522847 48.2840219,17 47.4008182,17 L3.5991818,17 Z" id="Stroke-3"></path>
                            <path d="M3.5991818,34 C2.71597808,34 2,33.5522847 2,33 C2,32.4477153 2.71597808,32 3.5991818,32 L47.4008182,32 C48.2840219,32 49,32.4477153 49,33 C49,33.5522847 48.2840219,34 47.4008182,34 L3.5991818,34 Z" id="Stroke-4"></path>
                        </g>
                    </g>
                </g>
            </g>
        </g>
    </g>
</svg>