<?xml version="1.0" encoding="UTF-8"?>
<svg width="16px" height="16px" viewBox="0 0 16 16" version="1.1" xmlns="http://www.w3.org/2000/svg" xmlns:xlink="http://www.w3.org/1999/xlink">
    <!-- Generator: Sketch 49.3 (51167) - http://www.bohemiancoding.com/sketch -->
    <title>language-white@2x</title>
    <desc>Created with Sketch.</desc>
    <defs></defs>
    <g id="PC" stroke="none" stroke-width="1" fill="none" fill-rule="evenodd">
        <g id="参考資料：PC" transform="translate(-1262.000000, -224.000000)" fill="#FFFFFF" fill-rule="nonzero">
            <g id="language-white" transform="translate(1262.000000, 224.000000)">
                <g id="Group-4">
                    <path d="M8,16 C3.58172163,16 0,12.4182784 0,8 C0,3.58172163 3.58172163,0 8,0 C12.4182784,0 16,3.58172163 16,8 C16,12.4182784 12.4182784,16 8,16 Z M8,14.9784685 C11.8541021,14.9784685 14.9784685,11.8541021 14.9784685,8 C14.9784685,4.14589792 11.8541021,1.02153155 8,1.02153155 C4.14589792,1.02153155 1.02153155,4.14589792 1.02153155,8 C1.02153155,11.8541021 4.14589792,14.9784685 8,14.9784685 Z" id="Stroke-1"></path>
                    <path d="M8,16 C5.95604393,16 4.57142857,12.4056929 4.57142857,8 C4.57142857,3.59430707 5.95604393,0 8,0 C10.0439556,0 11.4285714,3.59430766 11.4285714,8 C11.4285714,12.4056923 10.0439556,16 8,16 Z M8,14.9784685 C8.47597122,14.9784685 9.06130315,14.3357926 9.52895063,13.121832 C10.0435242,11.7860567 10.3415023,9.9572554 10.3415023,8 C10.3415023,6.0427446 10.0435242,4.21394333 9.52895063,2.87816795 C9.06130315,1.66420745 8.47597122,1.02153155 8,1.02153155 C7.52402848,1.02153155 6.93869656,1.66420737 6.47104914,2.87816793 C5.95647571,4.21394319 5.65849771,6.04274444 5.65849771,8 C5.65849771,9.95725556 5.95647571,11.7860568 6.47104914,13.1218321 C6.93869656,14.3357926 7.52402848,14.9784685 8,14.9784685 Z" id="Stroke-2"></path>
                    <path d="M1.25445924,5.33333333 C0.982428912,5.33333333 0.761904762,5.16277514 0.761904762,4.95238095 C0.761904762,4.74198676 0.982428912,4.57142857 1.25445924,4.57142857 L14.7455408,4.57142857 C15.0175711,4.57142857 15.2380952,4.74198676 15.2380952,4.95238095 C15.2380952,5.16277514 15.0175711,5.33333333 14.7455408,5.33333333 L1.25445924,5.33333333 Z" id="Stroke-3"></path>
                    <path d="M1.25445924,10.6666667 C0.982428912,10.6666667 0.761904762,10.4961085 0.761904762,10.2857143 C0.761904762,10.0753201 0.982428912,9.9047619 1.25445924,9.9047619 L14.7455408,9.9047619 C15.0175711,9.9047619 15.2380952,10.0753201 15.2380952,10.2857143 C15.2380952,10.4961085 15.0175711,10.6666667 14.7455408,10.6666667 L1.25445924,10.6666667 Z" id="Stroke-4"></path>
                </g>
            </g>
        </g>
    </g>
</svg>