<svg xmlns="http://www.w3.org/2000/svg" viewBox="0 0 235.61 46.56"><defs><style>.a{fill:#fff;}.b{fill:#b11e23;}.c{fill:#066334;}</style></defs><title>logo-header-white</title><polyline class="a" points="19.51 7.93 24.47 21.37 39.8 21.37"/><path class="a" d="M40.15,25.31a.83.83,0,0,0-.74-.54H26.19a.83.83,0,0,0-.74.54l-4,12.35a.85.85,0,0,0,.28.88l10.61,7.89a.81.81,0,0,0,.91,0l10.61-7.89a.85.85,0,0,0,.28-.88Z"/><path class="a" d="M40.15,21.25a.83.83,0,0,1-.74.54H26.19a.83.83,0,0,1-.74-.54l-4-12.35A.85.85,0,0,1,21.74,8L32.35.14a.81.81,0,0,1,.91,0L43.86,8a.85.85,0,0,1,.28.88Z"/><path class="a" d="M21.25,16.3a.83.83,0,0,1,.54.74V30.26a.83.83,0,0,1-.54.74L8.91,35A.85.85,0,0,1,8,34.71L.14,24.1a.81.81,0,0,1,0-.91L8,12.59a.85.85,0,0,1,.88-.28Z"/><path class="a" d="M44.52,16.3A.83.83,0,0,0,44,17V30.26a.83.83,0,0,0,.54.74l12.35,4a.85.85,0,0,0,.88-.28L65.63,24.1a.81.81,0,0,0,0-.91L57.74,12.59a.85.85,0,0,0-.88-.28Z"/><rect class="b" x="207.68" y="16.01" width="27.93" height="4.72"/><rect class="a" x="207.68" y="20.65" width="27.93" height="4.72"/><rect class="c" x="207.68" y="25.29" width="27.93" height="4.72"/><path class="a" d="M87.4,13.7a9.89,9.89,0,0,0,1.35.34.94.94,0,0,0,.64-.17,1.37,1.37,0,0,0,.32-.5h.46l.16,4.4h-.48a8,8,0,0,0-1.33-2.27,4.23,4.23,0,0,0-3.22-1.31,4.86,4.86,0,0,0-3.54,1.53q-1.53,1.53-1.53,5a6.34,6.34,0,0,0,1.52,4.52,5,5,0,0,0,3.76,1.62,6.5,6.5,0,0,0,.89-.07,5.45,5.45,0,0,0,1-.22,2.85,2.85,0,0,0,.93-.42.7.7,0,0,0,.18-.53V22.31q0-1.21-.34-1.51a2.76,2.76,0,0,0-1.5-.37V20H92v.39a2,2,0,0,0-1,.26A1.64,1.64,0,0,0,90.52,22v4.12q0,.37-1.8,1a10.76,10.76,0,0,1-3.47.61A7.71,7.71,0,0,1,80.08,26a6.59,6.59,0,0,1-2.32-5.29,7.28,7.28,0,0,1,1.85-5A6.85,6.85,0,0,1,85,13.37,8.63,8.63,0,0,1,87.4,13.7Z"/><path class="a" d="M94.62,22.95a22.39,22.39,0,0,1,3.75-1.67v-.87a3.58,3.58,0,0,0-.2-1.45,1.46,1.46,0,0,0-1.44-.68,2,2,0,0,0-1,.27.84.84,0,0,0-.47.76,2.81,2.81,0,0,0,.05.41,2.93,2.93,0,0,1,.05.37.85.85,0,0,1-.38.8,1,1,0,0,1-.51.13.86.86,0,0,1-.71-.3,1,1,0,0,1-.25-.67,2.13,2.13,0,0,1,.88-1.5A3.8,3.8,0,0,1,97,17.77a2.78,2.78,0,0,1,2.69,1.29,4.45,4.45,0,0,1,.38,2.05v4.1a2.73,2.73,0,0,0,.08.82.53.53,0,0,0,.55.4.92.92,0,0,0,.39-.07,3.88,3.88,0,0,0,.53-.35v.53a3.31,3.31,0,0,1-.7.65,2.06,2.06,0,0,1-1.16.39,1.14,1.14,0,0,1-1-.45,2,2,0,0,1-.34-1.07,9.63,9.63,0,0,1-1.33,1,3.48,3.48,0,0,1-1.77.55A2.12,2.12,0,0,1,93.78,27a2.08,2.08,0,0,1-.64-1.57A2.91,2.91,0,0,1,94.62,22.95Zm3.75-1.15a9.37,9.37,0,0,0-1.94.86A2.53,2.53,0,0,0,95,24.72a1.57,1.57,0,0,0,.61,1.37,1.49,1.49,0,0,0,.89.29A2.44,2.44,0,0,0,97.75,26a1.11,1.11,0,0,0,.62-1Z"/><path class="a" d="M101.75,27.12a2.48,2.48,0,0,0,1.25-.33,1.37,1.37,0,0,0,.31-1.07V21.11a4,4,0,0,0-.19-1.45.69.69,0,0,0-.69-.43l-.27,0-.35.07V19l1.19-.42.85-.31q.51-.19,1-.44s.08,0,.09.05a.93.93,0,0,1,0,.21v1.68a7.81,7.81,0,0,1,1.26-1.42,2,2,0,0,1,1.27-.51,1.18,1.18,0,0,1,.85.31,1.11,1.11,0,0,1,.08,1.49.8.8,0,0,1-.63.29,1.17,1.17,0,0,1-.78-.36,1.11,1.11,0,0,0-.62-.36q-.36,0-.88.58A1.77,1.77,0,0,0,105,21v4.61a1.53,1.53,0,0,0,.41,1.22,2.05,2.05,0,0,0,1.36.32v.34h-5Z"/><path class="a" d="M108.91,18.07h4.31v.29a2.69,2.69,0,0,0-.76.09q-.47.14-.47.53a.92.92,0,0,0,.05.3q.05.15.18.45l2.36,5.11,1.95-5.15q0-.08.1-.38a2.2,2.2,0,0,0,.07-.4.45.45,0,0,0-.18-.4,1,1,0,0,0-.47-.15l-.32,0v-.29h2.81v.29a1,1,0,0,0-.63.29,2.11,2.11,0,0,0-.36.68l-3.22,8.52a13,13,0,0,1-1.6,3.2,2.36,2.36,0,0,1-1.94,1,2.13,2.13,0,0,1-1.07-.29,1,1,0,0,1-.5-.91.85.85,0,0,1,.3-.67,1.1,1.1,0,0,1,.75-.26,2.5,2.5,0,0,1,.78.19,2.5,2.5,0,0,0,.74.19q.56,0,1.19-1.39a6,6,0,0,0,.63-1.83,1,1,0,0,0,0-.22,1.64,1.64,0,0,0-.07-.23l-3.22-7a3.37,3.37,0,0,0-.61-1,1.4,1.4,0,0,0-.77-.31Z"/><path class="a" d="M122.33,18v6.54a2.68,2.68,0,0,0,.19,1.11,1.4,1.4,0,0,0,1.39.78,2.36,2.36,0,0,0,1.36-.46,4,4,0,0,0,.77-.7v-5.6a1.3,1.3,0,0,0-.31-1,2.32,2.32,0,0,0-1.23-.3V18h3.3v7.19a1.39,1.39,0,0,0,.25,1,1.44,1.44,0,0,0,1.06.23v.29l-.83.23-.89.28-1.16.44a.06.06,0,0,1-.06,0,.5.5,0,0,1,0-.11V25.81A6.93,6.93,0,0,1,124.89,27a3.14,3.14,0,0,1-1.84.61,2.63,2.63,0,0,1-1.68-.63,2.51,2.51,0,0,1-.8-2.1V19.61a1.34,1.34,0,0,0-.35-1.08,2.1,2.1,0,0,0-1-.24V18Z"/><path class="a" d="M134.58,13.61h11.83l.11,3.56H146a4.27,4.27,0,0,0-.93-2.18,3.84,3.84,0,0,0-2.39-.51h-1.16V25.19q0,1.21.38,1.5a3.49,3.49,0,0,0,1.65.38v.39h-6.1v-.39a2.9,2.9,0,0,0,1.65-.44,2.74,2.74,0,0,0,.33-1.69V14.48h-1.17a4,4,0,0,0-2.37.5,3.7,3.7,0,0,0-.94,2.19h-.51Z"/><path class="a" d="M147,27.12a2.48,2.48,0,0,0,1.25-.33,1.37,1.37,0,0,0,.31-1.07V21.11a4,4,0,0,0-.19-1.45.69.69,0,0,0-.69-.43l-.27,0-.35.07V19l1.19-.42.85-.31q.51-.19,1-.44s.08,0,.09.05a.93.93,0,0,1,0,.21v1.68a7.81,7.81,0,0,1,1.26-1.42,2,2,0,0,1,1.27-.51,1.18,1.18,0,0,1,.85.31,1.11,1.11,0,0,1,.08,1.49.8.8,0,0,1-.63.29,1.17,1.17,0,0,1-.78-.36,1.11,1.11,0,0,0-.62-.36q-.36,0-.88.58a1.77,1.77,0,0,0-.52,1.19v4.61a1.53,1.53,0,0,0,.41,1.22,2.05,2.05,0,0,0,1.36.32v.34h-5Z"/><path class="a" d="M156.16,22.95a22.39,22.39,0,0,1,3.75-1.67v-.87a3.58,3.58,0,0,0-.2-1.45,1.46,1.46,0,0,0-1.44-.68,2,2,0,0,0-1,.27.84.84,0,0,0-.47.76,2.81,2.81,0,0,0,.05.41,2.93,2.93,0,0,1,.05.37.85.85,0,0,1-.38.8A1,1,0,0,1,156,21a.86.86,0,0,1-.71-.3,1,1,0,0,1-.25-.67,2.13,2.13,0,0,1,.88-1.5,3.8,3.8,0,0,1,2.59-.78,2.78,2.78,0,0,1,2.69,1.29,4.45,4.45,0,0,1,.38,2.05v4.1a2.73,2.73,0,0,0,.08.82.53.53,0,0,0,.55.4.92.92,0,0,0,.39-.07,3.88,3.88,0,0,0,.53-.35v.53a3.31,3.31,0,0,1-.7.65,2.06,2.06,0,0,1-1.16.39,1.14,1.14,0,0,1-1-.45,2,2,0,0,1-.34-1.07,9.63,9.63,0,0,1-1.33,1,3.48,3.48,0,0,1-1.77.55,2.12,2.12,0,0,1-1.52-.62,2.08,2.08,0,0,1-.64-1.57A2.91,2.91,0,0,1,156.16,22.95Zm3.75-1.15a9.37,9.37,0,0,0-1.94.86,2.53,2.53,0,0,0-1.47,2.06,1.57,1.57,0,0,0,.61,1.37,1.49,1.49,0,0,0,.89.29A2.44,2.44,0,0,0,159.3,26a1.11,1.11,0,0,0,.62-1Z"/><path class="a" d="M169.53,18.13a3.29,3.29,0,0,1,.79.59V15.47a1.86,1.86,0,0,0-.14-.86q-.14-.23-.66-.23h-.21l-.41,0v-.34l.84-.21.92-.26.81-.26.54-.19.06,0,0,1.07q0,.58,0,1.2t0,1.22L172,25a1.89,1.89,0,0,0,.16.93q.16.27.87.27h.22l.22,0v.34L172,27l-1.6.6-.07-.09V26.3a5.35,5.35,0,0,1-1,.89,3.22,3.22,0,0,1-1.73.46,3.44,3.44,0,0,1-2.81-1.34,4.83,4.83,0,0,1-1.08-3.11A5.84,5.84,0,0,1,165,19.39a3.94,3.94,0,0,1,3.16-1.59A2.9,2.9,0,0,1,169.53,18.13Zm.3,7.95a1.3,1.3,0,0,0,.49-.89V20.8a2.23,2.23,0,0,0-.71-1.87,2.29,2.29,0,0,0-1.38-.55,2.24,2.24,0,0,0-2,1.14,5.17,5.17,0,0,0-.72,2.8,5.65,5.65,0,0,0,.76,2.93,2.48,2.48,0,0,0,2.27,1.29A1.78,1.78,0,0,0,169.82,26.07Z"/><path class="a" d="M174.07,27.17a2.61,2.61,0,0,0,1.38-.37q.29-.27.29-1.47V20.46a3.11,3.11,0,0,0-.09-.92.62.62,0,0,0-.64-.42l-.22,0-.62.16V19l.44-.14q1.79-.58,2.49-.88a1.31,1.31,0,0,1,.37-.12.55.55,0,0,1,0,.15v7.33a2.4,2.4,0,0,0,.28,1.46,2.09,2.09,0,0,0,1.27.38v.29h-5Zm1.62-13.66a1,1,0,0,1,.76-.32,1.06,1.06,0,0,1,1.06,1.07,1,1,0,0,1-.31.75,1.06,1.06,0,0,1-1.81-.75A1,1,0,0,1,175.7,13.51Z"/><path class="a" d="M179.85,27.17a1.84,1.84,0,0,0,1-.36,1.73,1.73,0,0,0,.29-1.21V20.4a2.38,2.38,0,0,0-.12-.91.8.8,0,0,0-.8-.39h-.19l-.24,0v-.36l2-.63,1-.32s.08,0,.09.05a.52.52,0,0,1,0,.14v1.5a10.44,10.44,0,0,1,1.47-1.21,3.06,3.06,0,0,1,1.65-.5,2.16,2.16,0,0,1,1.27.4,3.16,3.16,0,0,1,1.1,2.77v4.77a1.57,1.57,0,0,0,.29,1.06,1.3,1.3,0,0,0,1,.34v.29h-4.36v-.29a1.75,1.75,0,0,0,1-.41,2.1,2.1,0,0,0,.3-1.35V21a2.93,2.93,0,0,0-.33-1.46,1.25,1.25,0,0,0-1.2-.58,2.21,2.21,0,0,0-1.22.41,7,7,0,0,0-.89.78v5.72a1.19,1.19,0,0,0,.33,1,1.79,1.79,0,0,0,1,.27v.29h-4.46Z"/><path class="a" d="M191.87,22.93a3.15,3.15,0,0,1-.52-1.77A3.46,3.46,0,0,1,195,17.82a4.53,4.53,0,0,1,1.64.35,4.73,4.73,0,0,0,1.73.35l.65,0,.63,0h.12v.83H198q.18.43.29.75a4,4,0,0,1,.17,1.12,3,3,0,0,1-1,2.14,3.49,3.49,0,0,1-2.6,1,8,8,0,0,1-.92-.09q-.3,0-.79.5a1.38,1.38,0,0,0-.49.82q0,.33.72.48a4.91,4.91,0,0,0,1,.1,14,14,0,0,1,3.57.3,2,2,0,0,1,1.54,2.06,2.88,2.88,0,0,1-1.8,2.57,7.68,7.68,0,0,1-3.64,1,4.6,4.6,0,0,1-2.66-.68,1.84,1.84,0,0,1-1-1.43,1.2,1.2,0,0,1,.26-.72,8.56,8.56,0,0,1,1-1l.67-.6.12-.12a3.14,3.14,0,0,1-.7-.36.91.91,0,0,1-.41-.73,1.41,1.41,0,0,1,.35-.83A13.42,13.42,0,0,1,193.32,24,2.67,2.67,0,0,1,191.87,22.93Zm1.08,7.6a6.88,6.88,0,0,0,2.21.33,5.67,5.67,0,0,0,2.76-.59A1.69,1.69,0,0,0,199,28.82q0-.68-.86-.91a10.52,10.52,0,0,0-2-.15l-.8,0-.77,0q-.23,0-.73-.08l-.75-.12q-.12,0-.6.64a2.08,2.08,0,0,0-.48,1.21A1.21,1.21,0,0,0,193,30.53Zm3.24-7a2.07,2.07,0,0,0,.61-1.71,5.88,5.88,0,0,0-.5-2.19,1.7,1.7,0,0,0-1.65-1.22,1.38,1.38,0,0,0-1.38,1,3.45,3.45,0,0,0-.19,1.24,4.21,4.21,0,0,0,.6,2.24,1.79,1.79,0,0,0,1.56,1A1.45,1.45,0,0,0,196.2,23.51Z"/></svg>