<svg xmlns="http://www.w3.org/2000/svg" viewBox="0 0 235.61 46.56"><defs><style>.a{fill:#fff;}.b{fill:#4c4c4c;}.c{fill:#b11e23;}.d{fill:#066334;}</style></defs><title>logo-header-gray</title><polyline class="a" points="19.51 7.93 24.47 21.37 39.8 21.37"/><path class="b" d="M40.15,25.31a.83.83,0,0,0-.74-.54H26.19a.83.83,0,0,0-.74.54l-4,12.35a.85.85,0,0,0,.28.88l10.61,7.89a.81.81,0,0,0,.91,0l10.61-7.89a.85.85,0,0,0,.28-.88Z"/><path class="b" d="M40.15,21.25a.83.83,0,0,1-.74.54H26.19a.83.83,0,0,1-.74-.54l-4-12.35A.85.85,0,0,1,21.74,8L32.35.14a.81.81,0,0,1,.91,0L43.86,8a.85.85,0,0,1,.28.88Z"/><path class="b" d="M21.25,16.3a.83.83,0,0,1,.54.74V30.26a.83.83,0,0,1-.54.74L8.91,35A.85.85,0,0,1,8,34.71L.14,24.1a.81.81,0,0,1,0-.91L8,12.59a.85.85,0,0,1,.88-.28Z"/><path class="b" d="M44.52,16.3A.83.83,0,0,0,44,17V30.26a.83.83,0,0,0,.54.74l12.35,4a.85.85,0,0,0,.88-.28L65.63,24.1a.81.81,0,0,0,0-.91L57.74,12.59a.85.85,0,0,0-.88-.28Z"/><rect class="c" x="207.68" y="16.01" width="27.93" height="4.72"/><rect class="a" x="207.68" y="20.65" width="27.93" height="4.72"/><rect class="d" x="207.68" y="25.29" width="27.93" height="4.72"/><path class="b" d="M87.4,13.7a9.84,9.84,0,0,0,1.35.34.93.93,0,0,0,.64-.17l.13-.12c.11-.21.3-.38.43-.38s.24.25.25.57l.12,3.27c0,.31-.09.57-.22.57s-.35-.23-.49-.51L88.85,16a3.91,3.91,0,0,0-.8-.78,5.84,5.84,0,0,0-2.75-1,4.86,4.86,0,0,0-3.54,1.53q-1.53,1.53-1.53,5a6.34,6.34,0,0,0,1.52,4.52,5,5,0,0,0,3.76,1.62,6.5,6.5,0,0,0,.89-.07,5.45,5.45,0,0,0,1-.22,2.84,2.84,0,0,0,.93-.42l.12-.12a8.09,8.09,0,0,0,.06-1v-2.2c0-.31,0-.82,0-1.13,0,0-.07-.75-.29-.94a2.55,2.55,0,0,0-.93-.29c-.31,0-.56-.16-.56-.27s.26-.19.57-.19h4.2c.31,0,.57.09.57.19s-.19.22-.43.25a1.68,1.68,0,0,0-.82.53,6.34,6.34,0,0,0-.21,1.58v3a1.52,1.52,0,0,1-.41,1,5,5,0,0,1-1.39.59,10.78,10.78,0,0,1-3.47.61A7.71,7.71,0,0,1,80.08,26a6.59,6.59,0,0,1-2.32-5.29,7.28,7.28,0,0,1,1.85-5A6.85,6.85,0,0,1,85,13.37,8.63,8.63,0,0,1,87.4,13.7Z"/><path class="b" d="M94.22,23.35a4.34,4.34,0,0,1,.9-.66l2.72-1.19a.82.82,0,0,0,.53-.65c0-.24,0-.69,0-1a2.88,2.88,0,0,0-.07-.51,2.11,2.11,0,0,0-.51-.77,1.53,1.53,0,0,0-1-.29,2,2,0,0,0-1,.27.85.85,0,0,0-.47.76,2.81,2.81,0,0,0,.05.41,2.93,2.93,0,0,1,.05.37v.38a2.59,2.59,0,0,1-.69.55h-.2a.86.86,0,0,1-.71-.3,1,1,0,0,1-.25-.67,2.13,2.13,0,0,1,.88-1.5A3.79,3.79,0,0,1,97,17.77a3.64,3.64,0,0,1,2.27.9,2.64,2.64,0,0,1,.59.93l.16.95c0,.31,0,.82,0,1.13v3c0,.31,0,.72,0,.9a2.5,2.5,0,0,0,.34.88h.28a.92.92,0,0,0,.39-.07l.1,0c.24-.16.43-.18.43,0a.88.88,0,0,1-.23.51,5.86,5.86,0,0,1-1,.67,1.59,1.59,0,0,1-.66.13,1.14,1.14,0,0,1-1-.45,1.45,1.45,0,0,1-.25-.51.3.3,0,0,0-.54-.2s-.26.22-.48.37a7.56,7.56,0,0,1-.92.51,3.69,3.69,0,0,1-1.25.32A2.12,2.12,0,0,1,93.78,27a2.08,2.08,0,0,1-.64-1.57A3.77,3.77,0,0,1,94.22,23.35Zm4.15-1a.36.36,0,0,0-.53-.37l-.91.4A5.59,5.59,0,0,0,96,23s-1,.92-1,1.69a1.53,1.53,0,0,0,.25.93,3.23,3.23,0,0,0,.86.7,1.21,1.21,0,0,0,.38,0A2.44,2.44,0,0,0,97.75,26c.41-.25.46-.42.46-.42a4.79,4.79,0,0,0,.16-1.11Z"/><path class="b" d="M101.75,27.29c0-.09.25-.21.56-.26a1.88,1.88,0,0,0,.69-.24.86.86,0,0,0,.24-.5c0-.31.06-.82.06-1.13V21.68c0-.31,0-.82,0-1.13a3.43,3.43,0,0,0-.16-.88.69.69,0,0,0-.69-.43l-.27,0-.11,0c-.13,0-.24,0-.24-.12s.24-.25.53-.36l.66-.23.41-.14.78-.3a7.69,7.69,0,0,1,.78-.28v.07c0,.1,0,.44,0,.75v.54c0,.31.16.37.35.12a8.46,8.46,0,0,1,.91-1,2,2,0,0,1,1.27-.51,1.18,1.18,0,0,1,.85.31,1.11,1.11,0,0,1,.08,1.49.8.8,0,0,1-.63.29,1.18,1.18,0,0,1-.78-.36,1.11,1.11,0,0,0-.62-.36q-.36,0-.88.58a1.61,1.61,0,0,0-.4.64,6.42,6.42,0,0,0-.12,1.12V25a10.05,10.05,0,0,0,.08,1.13,1.18,1.18,0,0,0,.33.66,1.72,1.72,0,0,0,.79.27c.31,0,.56.12.56.22s-.26.17-.57.17h-3.9C102,27.45,101.75,27.38,101.75,27.29Z"/><path class="b" d="M108.91,18.21c0-.08.26-.14.57-.14h3.18c.31,0,.57.06.57.14s-.13.15-.3.16a3.42,3.42,0,0,0-.93.34V19a.92.92,0,0,0,.05.3l0,.1.39.87,1.89,4.08c.13.28.33.28.44,0l1.55-4.09c.11-.29.22-.61.25-.71l0-.19a2.21,2.21,0,0,0,.07-.4.45.45,0,0,0-.18-.4l-.12-.08-.51-.07a.16.16,0,0,1-.16-.15c0-.08.26-.14.57-.14H118c.31,0,.57.06.57.14s-.22.2-.49.28l-.14.16-.14.16c-.12.28-.31.75-.42,1l-2.82,7.46c-.11.29-.3.76-.42,1.05A19.13,19.13,0,0,1,112.73,31a2.36,2.36,0,0,1-1.94,1,2.13,2.13,0,0,1-1.07-.29,1,1,0,0,1-.5-.91.85.85,0,0,1,.3-.67,1.1,1.1,0,0,1,.75-.26,2.48,2.48,0,0,1,.78.19,2.51,2.51,0,0,0,.74.19q.56,0,1.19-1.39a6,6,0,0,0,.63-1.83,1,1,0,0,0,0-.22l0-.09c0-.08-.16-.38-.29-.66l-2.74-5.93c-.13-.28-.36-.74-.5-1a2.23,2.23,0,0,0-.35-.49.81.81,0,0,0-.22-.17C109.16,18.41,108.91,18.29,108.91,18.21Z"/><path class="b" d="M121.76,18a.57.57,0,0,1,.57.57V24c0,.31,0,.75,0,1a3,3,0,0,0,.55,1.11,1.4,1.4,0,0,0,1,.36,2.09,2.09,0,0,0,.85-.2,5.73,5.73,0,0,0,.76-.46,2.23,2.23,0,0,0,.51-1.07V20.23c0-.31,0-.82-.07-1.13a.79.79,0,0,0-.24-.47,1.71,1.71,0,0,0-.66-.22c-.31,0-.56-.15-.56-.24s.26-.17.57-.17h2.17a.57.57,0,0,1,.57.57v6.06c0,.31,0,.82.06,1.13a.74.74,0,0,0,.19.39.86.86,0,0,0,.49.19c.31,0,.57.1.57.18s-.25.21-.55.29l-.28.08-.35.11-.82.28c-.16.06-.91.33-.94.32v-.06s0-.33,0-.64v-.51c0-.31-.17-.38-.38-.15a6,6,0,0,1-.48.47,5.9,5.9,0,0,1-.91.6,3.43,3.43,0,0,1-1.33.35,2.63,2.63,0,0,1-1.68-.63,3,3,0,0,1-.71-1.54,8.74,8.74,0,0,1-.09-1.13V20.17a9.74,9.74,0,0,0-.06-1,1.43,1.43,0,0,0-.52-.73c-.13-.05-.73-.21-.73-.29s.26-.14.57-.14Z"/><path class="b" d="M134.56,14.18a.59.59,0,0,1,.59-.57h10.7a.59.59,0,0,1,.58.57l.08,2.42c0,.31-.09.57-.23.57s-.32-.24-.41-.54a5.34,5.34,0,0,0-.77-1.64,4.88,4.88,0,0,0-1.82-.46c-.31,0-.82,0-1.13,0h0a.57.57,0,0,0-.57.57v9.57c0,.31,0,.82.05,1.13,0,0,.07.74.32.93A3.54,3.54,0,0,0,143,27c.31,0,.56.16.56.27s-.26.19-.57.19h-5c-.31,0-.57-.09-.57-.19s.25-.23.56-.28a3,3,0,0,0,1.09-.35,2.81,2.81,0,0,0,.28-1.12c0-.31,0-.82,0-1.13V15a.57.57,0,0,0-.57-.57h0c-.31,0-.82,0-1.13,0a5,5,0,0,0-1.8.45,4.61,4.61,0,0,0-.79,1.64c-.09.3-.27.55-.41.55s-.25-.25-.24-.57Z"/><path class="b" d="M147,27.29c0-.09.25-.21.56-.26a1.88,1.88,0,0,0,.69-.24.86.86,0,0,0,.24-.5c0-.31.06-.82.06-1.13V21.68c0-.31,0-.82,0-1.13a3.43,3.43,0,0,0-.16-.88.69.69,0,0,0-.69-.43l-.27,0-.11,0c-.13,0-.24,0-.24-.12s.24-.25.53-.36l.66-.23.41-.14.78-.3a7.69,7.69,0,0,1,.78-.28v.07c0,.1,0,.44,0,.75v.54c0,.31.16.37.35.12a8.46,8.46,0,0,1,.91-1,2,2,0,0,1,1.27-.51,1.18,1.18,0,0,1,.85.31,1.11,1.11,0,0,1,.08,1.49.8.8,0,0,1-.63.29,1.18,1.18,0,0,1-.78-.36,1.11,1.11,0,0,0-.62-.36q-.36,0-.88.58a1.61,1.61,0,0,0-.4.64,6.42,6.42,0,0,0-.12,1.12V25a10.05,10.05,0,0,0,.08,1.13,1.18,1.18,0,0,0,.33.66,1.72,1.72,0,0,0,.79.27c.31,0,.56.12.56.22s-.26.17-.57.17h-3.9C147.3,27.45,147,27.38,147,27.29Z"/><path class="b" d="M155.76,23.35a4.34,4.34,0,0,1,.9-.66l2.72-1.19a.82.82,0,0,0,.53-.65c0-.24,0-.69,0-1a2.88,2.88,0,0,0-.07-.51,2.11,2.11,0,0,0-.51-.77,1.53,1.53,0,0,0-1-.29,2,2,0,0,0-1,.27.85.85,0,0,0-.47.76,2.81,2.81,0,0,0,.05.41,2.93,2.93,0,0,1,.05.37v.38a2.59,2.59,0,0,1-.69.55H156a.86.86,0,0,1-.71-.3,1,1,0,0,1-.25-.67,2.13,2.13,0,0,1,.88-1.5,3.79,3.79,0,0,1,2.59-.78,3.64,3.64,0,0,1,2.27.9,2.64,2.64,0,0,1,.59.93l.16.95c0,.31,0,.82,0,1.13v3c0,.31,0,.72,0,.9a2.5,2.5,0,0,0,.34.88h.28a.92.92,0,0,0,.39-.07l.1,0c.24-.16.43-.18.43,0a.88.88,0,0,1-.23.51,5.86,5.86,0,0,1-1,.67,1.59,1.59,0,0,1-.66.13,1.14,1.14,0,0,1-1-.45,1.45,1.45,0,0,1-.25-.51.3.3,0,0,0-.54-.2s-.26.22-.48.37a7.56,7.56,0,0,1-.92.51,3.69,3.69,0,0,1-1.25.32,2.12,2.12,0,0,1-1.52-.62,2.08,2.08,0,0,1-.64-1.57A3.77,3.77,0,0,1,155.76,23.35Zm4.15-1a.36.36,0,0,0-.53-.37l-.91.4a5.59,5.59,0,0,0-.93.64s-1,.92-1,1.69a1.53,1.53,0,0,0,.25.93,3.23,3.23,0,0,0,.86.7,1.21,1.21,0,0,0,.38,0A2.44,2.44,0,0,0,159.3,26c.41-.25.46-.42.46-.42a4.79,4.79,0,0,0,.16-1.11Z"/><path class="b" d="M169,17.93a5.43,5.43,0,0,1,.8.37c.15.09.52.17.52-.14V16c0-.31,0-.82,0-1.13a.73.73,0,0,0-.1-.29c-.09-.16-.31-.24-.66-.24h-.28c-.19,0-.35,0-.35-.13s.19-.22.42-.28l1-.26.37-.11.31-.09.65-.22c.08,0,.41-.14.43-.13a2.55,2.55,0,0,1,0,.55c0,.29,0,.79,0,1.1,0,0,0,.22,0,.63s0,.65,0,.65c0,.31,0,.82,0,1.13l0,7.21c0,.31,0,.82,0,1.13a.89.89,0,0,0,.12.36q.16.27.87.27h.3a.14.14,0,0,1,.15.15c0,.09-.12.21-.27.26l-1.74.62-.54.2a1.68,1.68,0,0,1-.57.15,3.06,3.06,0,0,1,0-.61v-.12c0-.31-.16-.41-.36-.21a5.77,5.77,0,0,1-1.16.76,3.49,3.49,0,0,1-4-1.11,4.83,4.83,0,0,1-1.08-3.11A5.84,5.84,0,0,1,165,19.39a3.94,3.94,0,0,1,3.16-1.59A2.62,2.62,0,0,1,169,17.93Zm.83,8.15a2.6,2.6,0,0,0,.34-.34,4.9,4.9,0,0,0,.16-1.11V21.37a8.8,8.8,0,0,0-.09-1.13,2.46,2.46,0,0,0-.62-1.31,2.29,2.29,0,0,0-1.38-.55,2.24,2.24,0,0,0-2,1.14,5.17,5.17,0,0,0-.72,2.8,5.65,5.65,0,0,0,.76,2.93,2.48,2.48,0,0,0,2.27,1.29A1.78,1.78,0,0,0,169.82,26.07Z"/><path class="b" d="M174.07,27.31c0-.08.25-.18.56-.23a2.24,2.24,0,0,0,.82-.28c.19-.18.24-.9.24-.9,0-.31,0-.82,0-1.13V21c0-.31,0-.74,0-.94a2.52,2.52,0,0,0-.39-1H175l-.22,0h-.07c-.3.08-.55.08-.55,0s.1-.19.22-.23l.76-.25,1.42-.5.69-.26c.09,0,.22,0,.22,0s0,.36,0,.67v6.2c0,.31,0,.82,0,1.13a2.14,2.14,0,0,0,.24.9,1.64,1.64,0,0,0,.71.29c.31.05.56.16.56.24s-.26.14-.57.14h-3.83C174.33,27.45,174.07,27.39,174.07,27.31Zm1.62-13.8a1,1,0,0,1,.76-.32,1.06,1.06,0,0,1,1.06,1.07,1.06,1.06,0,1,1-2.12,0A1,1,0,0,1,175.7,13.51Z"/><path class="b" d="M179.85,27.31c0-.08.25-.2.55-.27a1.12,1.12,0,0,0,.46-.24,1.26,1.26,0,0,0,.24-.65c0-.31.05-.82.05-1.13V21c0-.31,0-.73,0-.94a2.11,2.11,0,0,0-.5-.93H180a.15.15,0,0,1-.18-.15c0-.1.21-.24.47-.33l2-.65a2.59,2.59,0,0,1,.56-.14v.07c0,.06,0,.36,0,.68V19c0,.31.19.4.42.19,0,0,.39-.35.62-.52a6.58,6.58,0,0,1,.94-.55,3.12,3.12,0,0,1,1.14-.26,1.84,1.84,0,0,1,.76.15,2.9,2.9,0,0,1,.85.7l.67,1.76a8.46,8.46,0,0,1,.09,1.13V25.2c0,.31,0,.82.07,1.13a1,1,0,0,0,.23.5.79.79,0,0,0,.42.25c.31,0,.56.15.56.23s-.26.14-.57.14h-3.23c-.31,0-.57-.06-.57-.14s.25-.2.55-.28a1.14,1.14,0,0,0,.49-.28,1.74,1.74,0,0,0,.25-.79c0-.31,0-.82,0-1.13V21.61c0-.31,0-.82-.06-1.13a2.64,2.64,0,0,0-.27-.89,1.25,1.25,0,0,0-1.2-.58,1.76,1.76,0,0,0-.71.16,5.68,5.68,0,0,0-.77.46,2.56,2.56,0,0,0-.63,1.14v4.59a10.36,10.36,0,0,0,.07,1.13.7.7,0,0,0,.25.42,1.09,1.09,0,0,0,.47.2c.31,0,.56.14.56.21s-.26.14-.57.14h-3.33C180.11,27.45,179.85,27.39,179.85,27.31Z"/><path class="b" d="M191.87,22.93a3.15,3.15,0,0,1-.52-1.77A3.46,3.46,0,0,1,195,17.82a4.53,4.53,0,0,1,1.64.35,4.74,4.74,0,0,0,1.73.35h1.34s.06.19.06.41-.26.41-.57.41h-.63c-.31,0-.52.12-.46.27a10.6,10.6,0,0,1,.3,1,2.87,2.87,0,0,1,0,.57,3,3,0,0,1-1,2.14,3.49,3.49,0,0,1-2.6,1,7.9,7.9,0,0,1-.92-.09q-.3,0-.79.5a1.38,1.38,0,0,0-.49.82q0,.33.72.48a4.9,4.9,0,0,0,1,.1,14.06,14.06,0,0,1,3.57.3,2,2,0,0,1,1.54,2.06,2.88,2.88,0,0,1-1.8,2.57,7.67,7.67,0,0,1-3.64,1,4.59,4.59,0,0,1-2.66-.68,1.84,1.84,0,0,1-1-1.42,1.21,1.21,0,0,1,.26-.72,7.58,7.58,0,0,1,.61-.66l.75-.69.4-.36s-.06-.12-.21-.18a3.93,3.93,0,0,1-.81-.66s0,0,0-.3a1.4,1.4,0,0,1,.35-.83c.23-.3,1.09-1.09,1.09-1.09a.37.37,0,0,0-.09-.64A2.82,2.82,0,0,1,191.87,22.93Zm1.08,7.6a6.89,6.89,0,0,0,2.21.33,5.67,5.67,0,0,0,2.76-.59A1.69,1.69,0,0,0,199,28.82q0-.68-.86-.91a10.51,10.51,0,0,0-2-.15l-.8,0-.77,0-.73-.08-.33,0a1,1,0,0,0-.69.14l-.32.43a2.08,2.08,0,0,0-.48,1.21A1.21,1.21,0,0,0,193,30.53Zm2.75-6.75a2.79,2.79,0,0,0,.82-.74,2.32,2.32,0,0,0,.29-1.24,5.88,5.88,0,0,0-.5-2.19,1.7,1.7,0,0,0-1.65-1.22,1.37,1.37,0,0,0-1,.5,3.46,3.46,0,0,0-.48,1,3.12,3.12,0,0,0-.05.69,4.21,4.21,0,0,0,.6,2.24,1.79,1.79,0,0,0,1.56,1A1.29,1.29,0,0,0,195.7,23.78Z"/></svg>