<svg xmlns="http://www.w3.org/2000/svg" viewBox="0 0 158.08 105.93"><defs><style>.a{fill:#fff;}</style></defs><title>logo-footer-white</title><path class="a" d="M87.84,39.26a.83.83,0,0,0-.74-.54H65.86a.83.83,0,0,0-.74.54L58.7,59.12A.85.85,0,0,0,59,60L76,72.67a.81.81,0,0,0,.91,0L94,60a.85.85,0,0,0,.28-.88Z"/><path class="a" d="M87.84,33.55a.83.83,0,0,1-.74.54H65.86a.83.83,0,0,1-.74-.54L58.7,13.69a.85.85,0,0,1,.28-.88L76,.14a.81.81,0,0,1,.91,0L94,12.82a.85.85,0,0,1,.28.88Z"/><path class="a" d="M58.78,25.62a.83.83,0,0,1,.54.74V47.6a.83.83,0,0,1-.54.74L38.93,54.76a.85.85,0,0,1-.88-.28l-12.68-17a.81.81,0,0,1,0-.91L38,19.48a.85.85,0,0,1,.88-.28Z"/><path class="a" d="M94.44,25.62a.83.83,0,0,0-.54.74V47.6a.83.83,0,0,0,.54.74l19.85,6.42a.85.85,0,0,0,.88-.28l12.68-17a.81.81,0,0,0,0-.91l-12.68-17a.85.85,0,0,0-.88-.28Z"/><path class="a" d="M12.48,82.18a12.69,12.69,0,0,0,1.75.44,1.21,1.21,0,0,0,.83-.23l.16-.15c.14-.27.39-.5.55-.5s.31.25.32.57l.17,4.57c0,.31-.12.57-.29.57s-.42-.23-.56-.51l-1.14-2a3.91,3.91,0,0,0-.8-.78,8.06,8.06,0,0,0-3.7-1.37,6.29,6.29,0,0,0-4.59,2q-2,2-2,6.52a8.22,8.22,0,0,0,2,5.85A6.41,6.41,0,0,0,10,99.27a8.5,8.5,0,0,0,1.15-.09,7,7,0,0,0,1.26-.29,3.67,3.67,0,0,0,1.21-.55l.16-.15a8.8,8.8,0,0,0,.08-1.09V93.91c0-.31,0-.82,0-1.13,0,0-.1-1.13-.39-1.39a4.06,4.06,0,0,0-1.38-.4c-.31,0-.56-.19-.56-.33s.26-.25.57-.25h5.78c.31,0,.57.11.57.25s-.25.29-.56.33a2.18,2.18,0,0,0-1.06.69,7.47,7.47,0,0,0-.28,1.88v4.2a1.52,1.52,0,0,1-.41,1,6.05,6.05,0,0,1-1.93.88,14,14,0,0,1-4.49.79A10,10,0,0,1,3,98.07a8.54,8.54,0,0,1-3-6.86,9.44,9.44,0,0,1,2.4-6.49,8.87,8.87,0,0,1,7-3A11.18,11.18,0,0,1,12.48,82.18Z"/><path class="a" d="M21.44,94.56a4.33,4.33,0,0,1,.9-.66l3.83-1.69a.9.9,0,0,0,.53-.77c0-.31,0-.82,0-1.13a5.41,5.41,0,0,0-.1-.82,2.3,2.3,0,0,0-.54-.88,2.2,2.2,0,0,0-1.46-.49,2.58,2.58,0,0,0-1.28.34,1.09,1.09,0,0,0-.61,1,3.61,3.61,0,0,0,.07.54,3.88,3.88,0,0,1,.07.48c0,.49-.11.61-.11.61a2.8,2.8,0,0,1-.79.59h-.26a1.11,1.11,0,0,1-.91-.39,1.34,1.34,0,0,1-.32-.87,2.76,2.76,0,0,1,1.14-1.94,4.92,4.92,0,0,1,3.36-1A5,5,0,0,1,28,88.73a2.64,2.64,0,0,1,.59.93l.27,1.56c0,.31,0,.82,0,1.13v4.17c0,.31,0,.76,0,1a3.07,3.07,0,0,0,.41,1.09s0,0,.39,0a1.19,1.19,0,0,0,.5-.09,1.64,1.64,0,0,0,.22-.13c.26-.18.46-.17.46,0a1.15,1.15,0,0,1-.29.66,6.76,6.76,0,0,1-1.13.79,2.55,2.55,0,0,1-1,.25,1.47,1.47,0,0,1-1.3-.58,2.34,2.34,0,0,1-.35-.83.3.3,0,0,0-.54-.2l-.81.62a8.08,8.08,0,0,1-1,.55,5.52,5.52,0,0,1-1.77.48,2.75,2.75,0,0,1-2-.8,2.7,2.7,0,0,1-.83-2C19.92,96.09,21.44,94.56,21.44,94.56Zm5.26-1.33a.37.37,0,0,0-.53-.37l-1.48.65a5.58,5.58,0,0,0-.93.64s-1.48,1.3-1.48,2.3a2.27,2.27,0,0,0,.44,1.33,3.22,3.22,0,0,0,.86.7,1.54,1.54,0,0,0,.65.11,3.17,3.17,0,0,0,1.67-.49,1.4,1.4,0,0,0,.64-.7,4.8,4.8,0,0,0,.16-1.11Z"/><path class="a" d="M31.08,99.78c0-.12.25-.26.56-.31a3.16,3.16,0,0,0,1.05-.34,1.52,1.52,0,0,0,.33-.82c0-.31.06-.82.06-1.13V92.35c0-.31,0-.82,0-1.13a5.56,5.56,0,0,0-.21-1.31.89.89,0,0,0-.89-.56l-.35,0-.15,0c-.17,0-.31,0-.31-.15s.24-.3.53-.41l1-.35.56-.2,1-.38a9.79,9.79,0,0,1,1-.37v.09c0,.13,0,.49,0,.8v1c0,.31.16.37.35.12a12.65,12.65,0,0,1,1.29-1.4,2.53,2.53,0,0,1,1.64-.66,1.53,1.53,0,0,1,1.1.4,1.43,1.43,0,0,1,.1,1.93,1,1,0,0,1-.81.37,1.52,1.52,0,0,1-1-.46,1.43,1.43,0,0,0-.8-.46q-.46,0-1.14.75a2.39,2.39,0,0,0-.56,1,6.41,6.41,0,0,0-.12,1.12V97a10,10,0,0,0,.08,1.13,1.94,1.94,0,0,0,.45,1,2.77,2.77,0,0,0,1.2.37c.31,0,.56.15.56.27s-.26.22-.57.22H31.65C31.34,100,31.08,99.9,31.08,99.78Z"/><path class="a" d="M40.36,88c0-.1.26-.19.57-.19h4.45c.31,0,.57.08.57.19s-.17.2-.38.21a3.92,3.92,0,0,0-1.09.38s-.12.07-.12.41a1.21,1.21,0,0,0,.07.39l0,.13c.11.25.3.69.43,1l2.59,5.6c.13.28.33.28.44,0L50,90.47c.11-.29.23-.64.27-.77l.06-.25a2.84,2.84,0,0,0,.09-.51.58.58,0,0,0-.24-.51l-.16-.11-.65-.09a.21.21,0,0,1-.21-.2c0-.1.26-.19.57-.19h2.51c.31,0,.57.08.57.19s-.25.25-.55.33c0,0-.09,0-.27.23a1.57,1.57,0,0,0-.24.35c-.12.29-.32.76-.43,1.05l-3.77,10c-.11.29-.3.76-.42,1.05a26.68,26.68,0,0,1-1.85,3.62,3.05,3.05,0,0,1-2.51,1.28,2.75,2.75,0,0,1-1.39-.37,1.26,1.26,0,0,1-.65-1.18,1.1,1.1,0,0,1,.39-.87,1.43,1.43,0,0,1,1-.34,3.23,3.23,0,0,1,1,.25,3.23,3.23,0,0,0,1,.25q.73,0,1.54-1.8a7.81,7.81,0,0,0,.81-2.37,1.41,1.41,0,0,0,0-.29l0-.11c0-.1-.17-.42-.3-.7l-3.7-8c-.13-.28-.36-.74-.5-1a4,4,0,0,0-.53-.79,1.16,1.16,0,0,0-.45-.26C40.61,88.27,40.36,88.12,40.36,88Z"/><path class="a" d="M57.17,87.74a.57.57,0,0,1,.57.57v7.34c0,.31,0,.81,0,1.11a3.53,3.53,0,0,0,.59,1.32,2.06,2.06,0,0,0,1.42.59A3.26,3.26,0,0,0,61,98.32a6.08,6.08,0,0,0,.83-.52,2.73,2.73,0,0,0,.66-1.22V90.47c0-.31,0-.82-.07-1.13a1.41,1.41,0,0,0-.33-.77,2.92,2.92,0,0,0-1-.31c-.31,0-.56-.17-.56-.29s.26-.22.57-.22h3.14a.57.57,0,0,1,.57.57v8.19c0,.31,0,.82.06,1.13a1.35,1.35,0,0,0,.26.67,1.55,1.55,0,0,0,.8.26c.31,0,.57.12.57.22s-.25.25-.55.34l-.53.15-.61.19-.91.31c-.2.07-1.17.43-1.21.41v-.08c0-.05,0-.35,0-.67v-1c0-.31-.17-.38-.38-.15l-.82.81a6.11,6.11,0,0,1-.94.62,5.06,5.06,0,0,1-1.88.53,3.4,3.4,0,0,1-2.17-.82,4.28,4.28,0,0,1-.94-2.16,8.72,8.72,0,0,1-.09-1.13V90.4a10.71,10.71,0,0,0-.07-1.13,1.31,1.31,0,0,0-.15-.49,1.42,1.42,0,0,0-.53-.48c-.17-.07-.94-.27-.94-.37s.26-.19.57-.19Z"/><path class="a" d="M73.6,82.63a.59.59,0,0,1,.59-.57h14.2a.59.59,0,0,1,.58.57l.11,3.47c0,.31-.13.57-.31.57s-.4-.24-.49-.54a7.77,7.77,0,0,0-1-2.28,7.1,7.1,0,0,0-2.53-.61c-.31,0-.82,0-1.13,0H83.2a.57.57,0,0,0-.57.57V96.49c0,.31,0,.82.05,1.13,0,0,.11,1.13.44,1.38a5.51,5.51,0,0,0,1.58.42c.31,0,.56.19.56.33s-.26.25-.57.25H77.93c-.31,0-.57-.11-.57-.25s.25-.29.56-.33a4.6,4.6,0,0,0,1.58-.48,4.35,4.35,0,0,0,.38-1.62c0-.31,0-.82,0-1.13V83.75a.57.57,0,0,0-.57-.57H79c-.31,0-.82,0-1.13,0a7.3,7.3,0,0,0-2.5.6,6.72,6.72,0,0,0-1.07,2.29c-.09.3-.3.55-.49.55s-.32-.25-.31-.57Z"/><path class="a" d="M89.77,99.78c0-.12.25-.26.56-.31a3.16,3.16,0,0,0,1.05-.34,1.52,1.52,0,0,0,.33-.82c0-.31.06-.82.06-1.13V92.35c0-.31,0-.82,0-1.13a5.56,5.56,0,0,0-.21-1.31.89.89,0,0,0-.89-.56l-.35,0-.15,0c-.17,0-.31,0-.31-.15s.24-.3.53-.41l1-.35.56-.2,1-.38a9.84,9.84,0,0,1,1-.37v.09c0,.13,0,.49,0,.8v1c0,.31.16.37.35.12a12.69,12.69,0,0,1,1.29-1.4,2.53,2.53,0,0,1,1.64-.66,1.53,1.53,0,0,1,1.1.4,1.43,1.43,0,0,1,.1,1.93,1,1,0,0,1-.81.37,1.52,1.52,0,0,1-1-.46,1.43,1.43,0,0,0-.8-.46q-.46,0-1.14.75a2.4,2.4,0,0,0-.56,1A6.41,6.41,0,0,0,94,92.16V97a10,10,0,0,0,.08,1.13,1.94,1.94,0,0,0,.45,1,2.77,2.77,0,0,0,1.2.37c.31,0,.56.15.56.27s-.26.22-.57.22H90.33C90,100,89.77,99.9,89.77,99.78Z"/><path class="a" d="M101.19,94.56a4.34,4.34,0,0,1,.9-.66l3.83-1.69a.9.9,0,0,0,.53-.77c0-.31,0-.82,0-1.13a5.42,5.42,0,0,0-.1-.82,2.29,2.29,0,0,0-.54-.88,2.2,2.2,0,0,0-1.46-.49,2.58,2.58,0,0,0-1.28.34,1.09,1.09,0,0,0-.61,1,3.48,3.48,0,0,0,.07.54,3.88,3.88,0,0,1,.07.48c0,.49-.11.61-.11.61a2.8,2.8,0,0,1-.79.59h-.26a1.11,1.11,0,0,1-.91-.39,1.34,1.34,0,0,1-.32-.87,2.76,2.76,0,0,1,1.14-1.94,4.92,4.92,0,0,1,3.36-1,5,5,0,0,1,3.07,1.28,2.64,2.64,0,0,1,.59.93l.27,1.56c0,.31,0,.82,0,1.13v4.17c0,.31,0,.76,0,1a3.07,3.07,0,0,0,.41,1.09s0,0,.39,0a1.18,1.18,0,0,0,.5-.09,1.61,1.61,0,0,0,.22-.13c.26-.18.46-.17.46,0a1.15,1.15,0,0,1-.29.66,6.75,6.75,0,0,1-1.13.79,2.56,2.56,0,0,1-1,.25,1.47,1.47,0,0,1-1.3-.58,2.34,2.34,0,0,1-.35-.83.3.3,0,0,0-.54-.2l-.81.62a8.06,8.06,0,0,1-1,.55,5.52,5.52,0,0,1-1.77.48,2.76,2.76,0,0,1-2-.8,2.7,2.7,0,0,1-.83-2C99.67,96.09,101.19,94.56,101.19,94.56Zm5.26-1.33a.36.36,0,0,0-.53-.37l-1.48.65a5.58,5.58,0,0,0-.93.64s-1.48,1.3-1.48,2.3a2.27,2.27,0,0,0,.43,1.33,3.21,3.21,0,0,0,.86.7,1.54,1.54,0,0,0,.65.11,3.16,3.16,0,0,0,1.67-.49,1.4,1.4,0,0,0,.64-.7,4.82,4.82,0,0,0,.16-1.11Z"/><path class="a" d="M118.37,87.71a5.76,5.76,0,0,1,.88.42c.19.12.67.29.67,0V85c0-.31,0-.82,0-1.13a1.52,1.52,0,0,0-.14-.55c-.12-.2-.4-.3-.85-.3h-.36c-.25,0-.45-.05-.45-.17s.24-.28.54-.36l1.09-.29.64-.18.51-.15.73-.24c.1,0,.53-.18.55-.17a2.21,2.21,0,0,1,0,.58v.26c0,.31,0,.82,0,1.13,0,0,0,.45,0,1s0,1,0,1c0,.31,0,.82,0,1.13l0,9.68c0,.31,0,.82,0,1.13a1.74,1.74,0,0,0,.17.64q.21.34,1.13.34h.39a.18.18,0,0,1,.19.19c0,.12-.16.27-.35.34l-2.1.74-1,.38a1.36,1.36,0,0,1-.58.14,2.58,2.58,0,0,1,0-.63v-.49c0-.31-.18-.39-.4-.17a6.15,6.15,0,0,1-.49.44,4.55,4.55,0,0,1-2.63.9,4.45,4.45,0,0,1-3.65-1.74,6.25,6.25,0,0,1-1.4-4A7.57,7.57,0,0,1,113,89.55a5.1,5.1,0,0,1,4.1-2.06A4,4,0,0,1,118.37,87.71Zm.91,10.5a1.73,1.73,0,0,0,.48-.61,4.9,4.9,0,0,0,.15-1.11V91.95a8.81,8.81,0,0,0-.09-1.13A3.63,3.63,0,0,0,119,89a3,3,0,0,0-1.79-.71,2.9,2.9,0,0,0-2.59,1.48,6.71,6.71,0,0,0-.93,3.63,7.32,7.32,0,0,0,1,3.8,3.21,3.21,0,0,0,2.95,1.67A2.31,2.31,0,0,0,119.28,98.21Z"/><path class="a" d="M124.79,99.81c0-.1.25-.23.56-.28a3.66,3.66,0,0,0,1.23-.39c.25-.23.33-1.33.33-1.33,0-.31,0-.82,0-1.13V91.5c0-.31,0-.79,0-1.05a3,3,0,0,0-.44-1.16s-.07-.09-.49-.09l-.28,0-.25.06c-.3.08-.55.06-.55-.06s.13-.25.28-.3l.82-.27,2.16-.76.73-.28c.11,0,.28-.05.29,0s0,.39,0,.7v8.37c0,.31,0,.82,0,1.13a3.47,3.47,0,0,0,.32,1.33,2.76,2.76,0,0,0,1.09.4c.31.05.56.18.56.28s-.26.19-.57.19h-5.3C125,100,124.79,99.92,124.79,99.81Zm2.1-17.89a1.31,1.31,0,0,1,1-.41,1.38,1.38,0,0,1,1.38,1.38,1.32,1.32,0,0,1-.4,1,1.37,1.37,0,0,1-2.35-1A1.35,1.35,0,0,1,126.9,81.93Z"/><path class="a" d="M132.28,99.81c0-.1.25-.24.55-.31a2,2,0,0,0,.76-.35,2.15,2.15,0,0,0,.32-1c0-.31.05-.82.05-1.13V91.43c0-.31,0-.78,0-1a2.45,2.45,0,0,0-.54-1.1s-.11-.1-.63-.1h-.33a.2.2,0,0,1-.23-.2c0-.13.24-.31.54-.4l1.49-.48,1.08-.35.17-.06a2.64,2.64,0,0,1,.64-.16v.09c0,.08,0,.4,0,.71v.81c0,.31.19.4.42.19l1-.85a6.83,6.83,0,0,1,1-.57,4.69,4.69,0,0,1,1.63-.41,2.86,2.86,0,0,1,1.13.26,2.9,2.9,0,0,1,.85.7l1,2.58a8.45,8.45,0,0,1,.09,1.13v5c0,.31,0,.82.07,1.13a1.74,1.74,0,0,0,.32.81,1.36,1.36,0,0,0,.71.35c.31,0,.56.17.56.27s-.26.19-.57.19h-4.52c-.31,0-.57-.08-.57-.19s.25-.25.55-.32a2,2,0,0,0,.8-.4A2.86,2.86,0,0,0,141,97.9c0-.31,0-.82,0-1.13V92.25c0-.31,0-.82-.06-1.13a4.14,4.14,0,0,0-.36-1.32,1.63,1.63,0,0,0-1.55-.75,2.83,2.83,0,0,0-1.07.28,6,6,0,0,0-.85.52,3.25,3.25,0,0,0-.82,1.3v6.28a10.41,10.41,0,0,0,.07,1.13,1.24,1.24,0,0,0,.35.72,1.93,1.93,0,0,0,.77.28c.31,0,.56.16.56.26s-.26.19-.57.19h-4.65C132.54,100,132.28,99.92,132.28,99.81Z"/><path class="a" d="M147.86,94.13a4.08,4.08,0,0,1-.67-2.29,4.48,4.48,0,0,1,4.71-4.33A5.89,5.89,0,0,1,154,88a6.13,6.13,0,0,0,2.24.46l.84,0H158s.08.24.08.54a.55.55,0,0,1-.57.54h-1.16c-.31,0-.5.16-.43.35a12,12,0,0,1,.35,1.17,4.69,4.69,0,0,1,.1.9,3.88,3.88,0,0,1-1.25,2.77,4.53,4.53,0,0,1-3.37,1.26,10.2,10.2,0,0,1-1.19-.12q-.38,0-1,.65a1.77,1.77,0,0,0-.63,1.06q0,.42.93.62a6.41,6.41,0,0,0,1.35.13,18.18,18.18,0,0,1,4.63.38,2.58,2.58,0,0,1,2,2.67,3.74,3.74,0,0,1-2.34,3.34,10,10,0,0,1-4.72,1.24,6,6,0,0,1-3.44-.88,2.39,2.39,0,0,1-1.27-1.85,1.56,1.56,0,0,1,.34-.93,12.09,12.09,0,0,1,.92-1l.83-.77,0,0,.5-.46s-.08-.15-.27-.24a4.38,4.38,0,0,1-.93-.73.8.8,0,0,1-.15-.52,1.83,1.83,0,0,1,.46-1.08c.3-.39,1.53-1.53,1.53-1.53a.37.37,0,0,0-.09-.64A4.19,4.19,0,0,1,147.86,94.13Zm1.4,9.85a8.92,8.92,0,0,0,2.87.42,7.36,7.36,0,0,0,3.57-.76,2.19,2.19,0,0,0,1.38-1.87q0-.89-1.12-1.18a13.67,13.67,0,0,0-2.61-.2l-1,0-1,0q-.29,0-.94-.11l-.43-.06a1.31,1.31,0,0,0-.9.18l-.41.56a2.7,2.7,0,0,0-.63,1.56A1.57,1.57,0,0,0,149.26,104Zm3.7-8.82a2.8,2.8,0,0,0,.82-.74,3.32,3.32,0,0,0,.47-1.74,7.61,7.61,0,0,0-.64-2.83,2.2,2.2,0,0,0-2.14-1.58A2,2,0,0,0,150,89a3.45,3.45,0,0,0-.48,1,4.59,4.59,0,0,0-.11,1.05,5.47,5.47,0,0,0,.78,2.9,2.32,2.32,0,0,0,2,1.28A1.63,1.63,0,0,0,153,95.16Z"/></svg>