<?xml version="1.0" encoding="UTF-8"?>
<svg width="168px" height="125px" viewBox="0 0 168 125" version="1.1" xmlns="http://www.w3.org/2000/svg" xmlns:xlink="http://www.w3.org/1999/xlink">
    <!-- Generator: Sketch 49.3 (51167) - http://www.bohemiancoding.com/sketch -->
    <title>Group 7</title>
    <desc>Created with Sketch.</desc>
    <defs></defs>
    <g id="PC" stroke="none" stroke-width="1" fill="none" fill-rule="evenodd">
        <g id="PC-TOP" transform="translate(-636.000000, -579.000000)">
            <g id="//-HEADER" transform="translate(-5.000000, 2.000000)">
                <g id="Group-7" transform="translate(641.000000, 577.000000)">
                    <path d="M84.5,49.5 L84.5,145.5" id="Line" stroke="#FFFFFF" stroke-linecap="square"></path>
                    <path d="M9.25927734,11.3613281 C9.25927734,12.6123109 8.79956514,13.603512 7.88012695,14.3349609 C6.96068876,15.0664099 5.73877715,15.4321289 4.21435547,15.4321289 C2.38231506,15.4321289 0.97754395,15.2304708 0,14.8271484 L0,13.78125 C1.08008353,14.2392601 2.45751116,14.4682617 4.13232422,14.4682617 C5.36279912,14.4682617 6.33861944,14.1862821 7.05981445,13.6223145 C7.78100947,13.0583468 8.14160156,12.318364 8.14160156,11.4023438 C8.14160156,10.8349581 8.02197385,10.3649921 7.78271484,9.99243164 C7.54345583,9.61987118 7.15381129,9.27978669 6.61376953,8.97216797 C6.07372777,8.66454924 5.28076695,8.33300959 4.23486328,7.97753906 C2.70360563,7.45116924 1.64575488,6.88208314 1.0612793,6.27026367 C0.476803718,5.65844421 0.184570312,4.84326681 0.184570312,3.82470703 C0.184570312,2.70360768 0.623774905,1.78931018 1.50219727,1.08178711 C2.38061963,0.374264041 3.510247,0.0205078125 4.89111328,0.0205078125 C6.29932345,0.0205078125 7.62206413,0.287106709 8.859375,0.8203125 L8.47998047,1.72265625 C7.23583362,1.2031224 6.04639239,0.943359375 4.91162109,0.943359375 C3.80419368,0.943359375 2.92236656,1.19970447 2.26611328,1.71240234 C1.60986,2.22510022 1.28173828,2.92235887 1.28173828,3.80419922 C1.28173828,4.35791292 1.38256735,4.81249822 1.58422852,5.16796875 C1.78588968,5.52343928 2.11572037,5.84301616 2.57373047,6.12670898 C3.03174057,6.41040181 3.81786552,6.7504863 4.93212891,7.14697266 C6.10108006,7.55029499 6.97948925,7.94164849 7.56738281,8.32104492 C8.15527638,8.70044135 8.58422717,9.13110111 8.85424805,9.61303711 C9.12426893,10.0949731 9.25927734,10.677731 9.25927734,11.3613281 Z M21.4573479,0.963867188 C19.5774557,0.963867188 18.09749,1.56542367 17.0174065,2.76855469 C15.9373229,3.9716857 15.3972893,5.61913017 15.3972893,7.7109375 C15.3972893,9.85059664 15.9065615,11.5117128 16.9251213,12.6943359 C17.9436811,13.876959 19.3997212,14.4682617 21.2932854,14.4682617 C22.5511042,14.4682617 23.706366,14.3076188 24.7591057,13.9863281 L24.7591057,14.9091797 C23.7678898,15.2578142 22.5305975,15.4321289 21.0471916,15.4321289 C18.9417123,15.4321289 17.2840141,14.7519599 16.0740471,13.3916016 C14.8640801,12.0312432 14.2591057,10.1308716 14.2591057,7.69042969 C14.2591057,6.166008 14.5479212,4.82275972 15.1255608,3.66064453 C15.7032004,2.49852935 16.5337585,1.60132152 17.61726,0.968994141 C18.7007615,0.33666676 19.9602704,0.0205078125 21.3958244,0.0205078125 C22.8587224,0.0205078125 24.1677913,0.293942578 25.3230705,0.840820312 L24.9026604,1.78417969 C23.8089049,1.23730195 22.6604789,0.963867188 21.4573479,0.963867188 Z M31.7789536,8.6953125 L31.7789536,15.2270508 L30.7330551,15.2270508 L30.7330551,0.235839844 L34.3014145,0.235839844 C36.1607988,0.235839844 37.5348085,0.579342268 38.4234848,1.26635742 C39.3121611,1.95337258 39.7564926,2.98729778 39.7564926,4.36816406 C39.7564926,5.3730519 39.4916027,6.22069967 38.9618149,6.91113281 C38.4320271,7.60156595 37.6271035,8.09716646 36.54702,8.39794922 L40.6178207,15.2270508 L39.3668442,15.2270508 L35.5011215,8.6953125 L31.7789536,8.6953125 Z M31.7789536,7.79296875 L34.6397934,7.79296875 C35.9044482,7.79296875 36.8853954,7.51098915 37.5826645,6.94702148 C38.2799336,6.38305382 38.6285629,5.55078675 38.6285629,4.45019531 C38.6285629,3.30858804 38.2867695,2.47802994 37.6031723,1.95849609 C36.9195751,1.43896225 35.8053285,1.17919922 34.2603989,1.17919922 L31.7789536,1.17919922 L31.7789536,7.79296875 Z M58.4452858,7.7109375 C58.4452858,10.0898556 57.8505652,11.9714286 56.6611061,13.3557129 C55.471647,14.7399972 53.8310384,15.4321289 51.7392311,15.4321289 C49.6542597,15.4321289 48.0170691,14.7399972 46.82761,13.3557129 C45.6381509,11.9714286 45.0434303,10.0830198 45.0434303,7.69042969 C45.0434303,5.30467557 45.6432778,3.42652052 46.8429909,2.0559082 C48.0427039,0.685295881 49.6816035,0 51.7597389,0 C53.8515463,0 55.4887369,0.688713816 56.67136,2.06616211 C57.8539831,3.4436104 58.4452858,5.32518338 58.4452858,7.7109375 Z M46.1816139,7.7109375 C46.1816139,9.85743261 46.6601248,11.5168398 47.6171608,12.689209 C48.5741968,13.8615781 49.9482065,14.4477539 51.7392311,14.4477539 C53.5439276,14.4477539 54.9230642,13.866705 55.8766823,12.7045898 C56.8303003,11.5424747 57.3071022,9.87794052 57.3071022,7.7109375 C57.3071022,5.55077045 56.8303003,3.89478115 55.8766823,2.74291992 C54.9230642,1.59105869 53.5507635,1.01513672 51.7597389,1.01513672 C49.9755503,1.01513672 48.5998316,1.5961856 47.6325417,2.75830078 C46.6652517,3.92041597 46.1816139,5.57127836 46.1816139,7.7109375 Z M64.5217743,15.2270508 L64.5217743,0.235839844 L65.5676727,0.235839844 L65.5676727,14.2426758 L72.7146454,14.2426758 L72.7146454,15.2270508 L64.5217743,15.2270508 Z M77.9298058,15.2270508 L77.9298058,0.235839844 L78.9757042,0.235839844 L78.9757042,14.2426758 L86.1226768,14.2426758 L86.1226768,15.2270508 L77.9298058,15.2270508 Z M110.805927,7.58789062 C110.805927,10.1035282 110.146266,12.0056088 108.826923,13.2941895 C107.507581,14.5827701 105.569612,15.2270508 103.012959,15.2270508 L99.4240913,15.2270508 L99.4240913,0.235839844 L103.474384,0.235839844 C105.866974,0.235839844 107.687025,0.86132187 108.934589,2.11230469 C110.182154,3.3632875 110.805927,5.18846457 110.805927,7.58789062 Z M109.667744,7.62890625 C109.667744,5.48241114 109.122583,3.86743706 108.032246,2.78393555 C106.941908,1.70043404 105.340606,1.15869141 103.228291,1.15869141 L100.46999,1.15869141 L100.46999,14.3041992 L102.951435,14.3041992 C107.428997,14.3041992 109.667744,12.0791238 109.667744,7.62890625 Z M129.484467,7.7109375 C129.484467,10.0898556 128.889746,11.9714286 127.700287,13.3557129 C126.510828,14.7399972 124.870219,15.4321289 122.778412,15.4321289 C120.693441,15.4321289 119.05625,14.7399972 117.866791,13.3557129 C116.677332,11.9714286 116.082611,10.0830198 116.082611,7.69042969 C116.082611,5.30467557 116.682459,3.42652052 117.882172,2.0559082 C119.081885,0.685295881 120.720784,0 122.79892,0 C124.890727,0 126.527918,0.688713816 127.710541,2.06616211 C128.893164,3.4436104 129.484467,5.32518338 129.484467,7.7109375 Z M117.220795,7.7109375 C117.220795,9.85743261 117.699306,11.5168398 118.656342,12.689209 C119.613378,13.8615781 120.987387,14.4477539 122.778412,14.4477539 C124.583108,14.4477539 125.962245,13.866705 126.915863,12.7045898 C127.869481,11.5424747 128.346283,9.87794052 128.346283,7.7109375 C128.346283,5.55077045 127.869481,3.89478115 126.915863,2.74291992 C125.962245,1.59105869 124.589944,1.01513672 122.79892,1.01513672 C121.014731,1.01513672 119.639012,1.5961856 118.671722,2.75830078 C117.704432,3.92041597 117.220795,5.57127836 117.220795,7.7109375 Z M147.301678,15.2270508 L146.44035,15.2270508 L143.148846,3.66064453 C142.875407,2.71044447 142.670331,1.93115539 142.533611,1.32275391 C142.424236,1.91748344 142.26872,2.60107036 142.067059,3.37353516 C141.865397,4.14599996 140.763113,8.09713232 138.760174,15.2270508 L137.878338,15.2270508 L133.756268,0.235839844 L134.853436,0.235839844 L137.478436,9.89501953 C137.580975,10.2846699 137.676677,10.645262 137.765545,10.9768066 C137.854413,11.3083513 137.934734,11.6193833 138.006512,11.9099121 C138.078289,12.2004409 138.14323,12.4807115 138.201336,12.7507324 C138.259442,13.0207533 138.31242,13.2924791 138.360271,13.565918 C138.524335,12.6362258 138.872964,11.2246188 139.40617,9.33105469 L141.969646,0.235839844 L143.128338,0.235839844 L146.132732,10.6743164 C146.481367,11.8774474 146.730876,12.8481408 146.881268,13.5864258 C146.970135,13.0942358 147.084636,12.5712918 147.224773,12.0175781 C147.364911,11.4638644 148.419344,7.5366576 150.388103,0.235839844 L151.444256,0.235839844 L147.301678,15.2270508 Z M167.620842,15.2270508 L166.56469,15.2270508 L157.684807,1.91748047 L157.602776,1.91748047 C157.684807,3.5034259 157.725822,4.699703 157.725822,5.50634766 L157.725822,15.2270508 L156.72094,15.2270508 L156.72094,0.235839844 L157.766838,0.235839844 L166.636467,13.5249023 L166.69799,13.5249023 C166.636467,12.2944274 166.605705,11.1254938 166.605705,10.0180664 L166.605705,0.235839844 L167.620842,0.235839844 L167.620842,15.2270508 Z" id="SCROLL-DOWN" fill="#FFFFFF"></path>
                </g>
            </g>
        </g>
    </g>
</svg>